<svg xmlns="http://www.w3.org/2000/svg" xmlns:xlink="http://www.w3.org/1999/xlink" version="1.1" id="Layer_1" x="0px" y="0px" viewBox="72.61263275146484 69.44999694824219 430.787353515625 161.0800018310547" style="enable-background:new 0 0 576 300;" xml:space="preserve">
<style type="text/css">
	.st0{fill:#5046e5;}
	.st1{fill:#5046e5;}
	.st2{fill:#5046e5;}
	.st3{fill:#5046e5;}
	.st4{fill:#5046e5;}
	.st5{fill:#5046e5;}
</style>
	<g>
	<g>
		<path class="st2" d="M177.69,141.25c-2.17-5.41-5.29-10.17-9.26-14.15v0c-3.98-3.98-8.75-7.1-14.17-9.29    c-5.41-2.18-11.46-3.29-17.98-3.29c-6.52,0-12.58,1.1-18.03,3.28c-5.47,2.19-10.24,5.32-14.19,9.3c-3.94,3.98-7.03,8.73-9.2,14.14    c-2.16,5.39-3.26,11.39-3.26,17.85c0,6.45,1.09,12.47,3.25,17.89c2.17,5.44,5.26,10.22,9.2,14.2c3.95,3.99,8.72,7.12,14.19,9.3    c5.44,2.18,11.51,3.28,18.03,3.28c6.52,0,12.57-1.11,17.98-3.29c5.42-2.19,10.19-5.31,14.17-9.29c3.98-3.98,7.09-8.76,9.26-14.2    c2.16-5.43,3.25-11.44,3.25-17.89C180.94,152.65,179.85,146.65,177.69,141.25z M164.73,159.1c0,4.16-0.7,8.07-2.08,11.62    c-1.37,3.53-3.34,6.64-5.87,9.23c-2.54,2.61-5.58,4.68-9.04,6.15c-3.45,1.48-7.31,2.22-11.47,2.22c-4.16,0-8.02-0.75-11.47-2.22    c-3.46-1.47-6.47-3.54-8.97-6.14c-2.51-2.61-4.49-5.73-5.89-9.27c-1.41-3.55-2.12-7.45-2.12-11.6c0-4.15,0.71-8.05,2.12-11.6    c1.4-3.54,3.38-6.66,5.89-9.27c2.49-2.59,5.5-4.64,8.95-6.08c3.46-1.45,7.33-2.18,11.49-2.18c4.16,0,8.03,0.73,11.49,2.18    c3.45,1.45,6.49,3.5,9.02,6.09c2.53,2.6,4.51,5.71,5.88,9.23C164.03,151.04,164.73,154.95,164.73,159.1z"></path>
		<path class="st2" d="M259.29,138.74c-2.25,0-6.29,0.87-8.08,6.71l-9.11,28.3l-7.5-28.96c-0.42-1.76-1.3-3.21-2.64-4.32    c-1.38-1.14-3.12-1.72-5.17-1.72c-2.15,0-3.92,0.59-5.27,1.76c-1.24,1.07-2.12,2.47-2.61,4.15l-8.65,28.94l-9.08-28.14    c-0.74-2.27-1.72-3.9-3.02-4.98c-1.38-1.14-3.08-1.72-5.07-1.72c-4.2,0-5.83,2.27-6.42,3.63c-0.85,1.92-0.91,4.3-0.19,7.07    l16.05,47.72c0.54,1.5,1.53,2.77,2.95,3.75c1.41,0.99,2.98,1.48,4.68,1.48c1.77,0,3.37-0.5,4.78-1.48    c1.46-1.02,2.44-2.34,2.89-3.91l8.56-29.92l8.16,29.92c0.46,1.59,1.46,2.91,2.98,3.93c1.44,0.97,3.02,1.46,4.7,1.46    c1.78,0,3.39-0.51,4.77-1.51c1.39-1.01,2.35-2.33,2.76-3.77l15.97-47.45c1.04-2.89,1.03-5.39-0.03-7.43    C265.02,140.92,263.29,138.74,259.29,138.74z"></path>
		<path class="st2" d="M320.41,141.67L320.41,141.67c-4.29-2.3-9.19-3.47-14.57-3.47c-5.17,0-9.91,1.15-14.09,3.42    c-0.84,0.46-1.66,0.96-2.44,1.49c-0.37-0.79-0.87-1.5-1.5-2.12c-1.51-1.49-3.47-2.25-5.83-2.25c-2.27,0-4.2,0.75-5.74,2.22    c-1.56,1.5-2.36,3.45-2.36,5.8v47.71c0,2.27,0.78,4.19,2.32,5.72c1.54,1.53,3.48,2.3,5.77,2.3c2.38,0,4.35-0.79,5.86-2.33    c1.49-1.52,2.24-3.44,2.24-5.69v-30.17c0-2.12,0.55-3.93,1.69-5.53c1.18-1.67,2.82-3.03,4.87-4.05c2.07-1.03,4.45-1.55,7.05-1.55    c2.89,0,5.47,0.54,7.66,1.61c2.11,1.03,3.75,2.57,5.01,4.72c1.27,2.16,1.91,5.07,1.91,8.66v26.32c0,2.27,0.78,4.19,2.32,5.72    c1.54,1.53,3.48,2.3,5.77,2.3c2.29,0,4.23-0.77,5.77-2.3c1.54-1.53,2.32-3.45,2.32-5.72v-26.32c0-6.33-1.25-11.79-3.73-16.22    C328.23,147.46,324.76,144,320.41,141.67z"></path>
		<g>
			<path class="st2" d="M353.58,138.74c-2.27,0-4.2,0.75-5.74,2.22c-1.56,1.5-2.36,3.45-2.36,5.8v47.61c0,2.27,0.78,4.19,2.32,5.72     c1.54,1.53,3.48,2.3,5.78,2.3c2.38,0,4.35-0.79,5.86-2.33c1.49-1.52,2.24-3.44,2.24-5.69v-47.61c0-2.33-0.76-4.28-2.27-5.77     C357.9,139.5,355.94,138.74,353.58,138.74z"></path>
			<path class="st2" d="M353.58,115.1c-2.65,0-4.95,0.95-6.85,2.84c-1.9,1.88-2.86,4.17-2.86,6.79c0,2.62,0.96,4.91,2.86,6.79     c1.9,1.88,4.21,2.84,6.85,2.84c2.65,0,4.95-0.95,6.85-2.84c1.9-1.88,2.86-4.17,2.86-6.79c0-2.62-0.96-4.9-2.86-6.79     C358.53,116.05,356.23,115.1,353.58,115.1z"></path>
		</g>
		<path class="st2" d="M390.41,134.14L390.41,134.14c0.9-1.73,2.12-3.04,3.74-4.01c1.6-0.96,3.51-1.45,5.68-1.45    c2.25,0,4.17-0.72,5.71-2.13c1.59-1.46,2.39-3.26,2.39-5.35c0-2.18-0.82-4.01-2.43-5.44c-1.53-1.36-3.44-2.04-5.67-2.04    c-5.26,0-9.98,1.18-14.04,3.5c-4.08,2.34-7.3,5.64-9.57,9.83c-2.15,3.95-3.28,8.61-3.38,13.84h-0.14v14.33h0.13v39.16    c0,2.37,0.82,4.34,2.44,5.83c1.57,1.45,3.4,2.19,5.44,2.19c2.5,0,4.54-0.76,6.04-2.25c1.51-1.49,2.27-3.44,2.27-5.77v-39.16h8.43    c2.18,0,4-0.66,5.43-1.96c1.48-1.36,2.24-3.07,2.24-5.09c0-2.16-0.75-3.95-2.24-5.31c-1.43-1.3-3.25-1.96-5.43-1.96h-8.43v-0.32    C389.03,138.06,389.5,135.9,390.41,134.14z"></path>
		<path class="st2" d="M469.44,144c-1.54-1.53-3.48-2.3-5.77-2.3c-2.38,0-4.35,0.79-5.86,2.33c-1.33,1.37-2.07,3.05-2.21,5    c-0.01,0.17-0.02,0.35-0.02,0.53c0,0.05-0.01,0.1-0.01,0.15v0c0,0.06-0.01,0.12-0.01,0.18v30.21c-0.04,2.02-0.59,3.77-1.68,5.31    c-1.18,1.67-2.82,3.03-4.87,4.05c-2.07,1.03-4.45,1.55-7.05,1.55c-2.89,0-5.47-0.54-7.66-1.61c-2.11-1.03-3.75-2.57-5.01-4.72    c-1.27-2.16-1.91-5.07-1.91-8.66v-26.32c0-2.27-0.78-4.19-2.32-5.72c-1.54-1.53-3.48-2.3-5.77-2.3c-2.29,0-4.23,0.77-5.77,2.3    c-1.54,1.53-2.32,3.45-2.32,5.72v26.32c0,6.33,1.25,11.79,3.73,16.22c2.5,4.48,5.97,7.94,10.32,10.27v0    c4.29,2.3,9.19,3.47,14.57,3.47c5.17,0,9.91-1.15,14.09-3.42c0.57-0.31,1.12-0.64,1.67-0.99v1.8h0v0.32c0,2.5-0.47,4.66-1.38,6.42    l0,0c-0.9,1.73-2.12,3.04-3.74,4.01c-1.6,0.96-3.51,1.45-5.68,1.45c-2.25,0-4.17,0.72-5.71,2.13c-1.59,1.46-2.39,3.26-2.39,5.35    c0,2.18,0.82,4.01,2.43,5.44c1.53,1.36,3.44,2.04,5.67,2.04c5.26,0,9.98-1.18,14.04-3.5c4.08-2.34,7.3-5.64,9.57-9.83    c2.15-3.95,3.28-8.61,3.38-13.84h0.01v-5.95v-8.38v-39.34C471.77,147.44,470.98,145.52,469.44,144z"></path>
	</g>
		<path class="st1" d="M195.73,108.12l-13.96-9.48v-19.9c0-4.3-3.52-5.78-7.85-5.78s-7.85,1.49-7.85,5.78v9.24l-27.28-18.53   l-62.47,38.48c-3.69,2.27-4.81,7.06-2.52,10.71c1.49,2.37,4.05,3.67,6.67,3.67c1.42,0,2.85-0.38,4.14-1.17l53.76-33.12l48.48,32.93   c3.58,2.43,8.47,1.53,10.92-2.02C200.21,115.39,199.3,110.54,195.73,108.12z"></path>
		<path class="st1" d="M503.4,187.97c0,7.1-10.46,12.86-11.18,12.86c-0.72,0-11.18-5.76-11.18-12.86c0-0.1,0-0.2,0-0.29   c0-0.02,0-0.04,0-0.06c0-0.26,0.02-0.51,0.05-0.75c0.06-0.54,0.16-0.95,0.3-1.26c0.84-2.36,3.11-4.06,5.78-4.06   c2.09,0,3.94,1.04,5.05,2.63c1.11-1.59,2.95-2.63,5.05-2.63c2.67,0,4.94,1.7,5.78,4.06c0.14,0.31,0.24,0.73,0.3,1.26   c0.03,0.25,0.05,0.5,0.05,0.75c0,0.02,0,0.04,0,0.06C503.4,187.77,503.4,187.87,503.4,187.97z"></path>
</g>
</svg>